<?xml version="1.0" standalone="no"?><!DOCTYPE svg PUBLIC "-//W3C//DTD SVG 1.1//EN" "http://www.w3.org/Graphics/SVG/1.1/DTD/svg11.dtd"><svg t="1621387874218" class="icon" viewBox="0 0 1112 1024" version="1.1" xmlns="http://www.w3.org/2000/svg" p-id="2402" xmlns:xlink="http://www.w3.org/1999/xlink" width="217.1875" height="200"><defs><style type="text/css"></style></defs><path d="M1112.702976 772.388571V81.92A105.325714 105.325714 0 0 0 1013.22869 0h-936.228571a111.177143 111.177143 0 0 0-58.514286 46.811429A128.731429 128.731429 0 0 0 0.931547 128.731429v643.657142a111.177143 111.177143 0 0 0 46.811429 87.771429 175.542857 175.542857 0 0 0 76.068571 11.702857h392.045715v76.068572H211.582976a35.108571 35.108571 0 0 0-35.108571 35.108571 40.96 40.96 0 0 0 35.108571 40.96h690.468571a40.96 40.96 0 0 0 35.108572-40.96 35.108571 35.108571 0 0 0-35.108572-35.108571h-304.274285v-76.068572h444.708571a99.474286 99.474286 0 0 0 70.217143-99.474286zM100.405833 76.068571z m-11.702857 5.851429z m0 0z m-5.851429 702.171429z m5.851429 5.851428z m942.08-11.702857v11.702857H77.000119V99.474286h5.851428a5.851429 5.851429 0 0 0 5.851429-5.851429h947.931429v678.765714h-5.851429z" p-id="2403"></path><path d="M416.382976 397.897143a40.96 40.96 0 0 0-40.96 40.96 40.96 40.96 0 0 0 81.92 0 40.96 40.96 0 0 0-40.96-40.96zM556.817262 397.897143a40.96 40.96 0 0 0-40.96 40.96 40.96 40.96 0 0 0 81.92 0 40.96 40.96 0 0 0-40.96-40.96zM697.251547 397.897143a40.96 40.96 0 0 0-40.96 40.96 40.96 40.96 0 0 0 81.92 0 40.96 40.96 0 0 0-40.96-40.96z" p-id="2404"></path></svg>