<?xml version="1.0" encoding="utf-8"?>
<!-- Generator: Adobe Illustrator 22.0.0, SVG Export Plug-In . SVG Version: 6.00 Build 0)  -->
<svg version="1.1" id="图层_1" xmlns="http://www.w3.org/2000/svg" xmlns:xlink="http://www.w3.org/1999/xlink" x="0px" y="0px"
	 viewBox="0 0 18 18" style="enable-background:new 0 0 18 18;" xml:space="preserve">
<style type="text/css">
</style>
<g>
	<g>
		<path class="st0" d="M16,1.5c0.3,0,0.5,0.2,0.5,0.5v10c0,0.3-0.2,0.5-0.5,0.5H2c-0.3,0-0.5-0.2-0.5-0.5V2c0-0.3,0.2-0.5,0.5-0.5
			H16 M16,0H2C0.9,0,0,0.9,0,2v10c0,1.1,0.9,2,2,2h14c1.1,0,2-0.9,2-2V2C18,0.9,17.1,0,16,0L16,0z"/>
	</g>
	<g>
		<rect x="3.1" y="8.6" class="st0" width="2.1" height="4.5"/>
	</g>
	<g>
		<rect x="6.2" y="7.2" class="st0" width="2.1" height="5.9"/>
	</g>
	<g>
		<rect x="9.7" y="3.7" class="st0" width="2.1" height="9.5"/>
	</g>
	<g>
		<rect x="13.2" y="5.1" class="st0" width="2.1" height="8.1"/>
	</g>
	<g>
		<rect x="6.1" y="13.8" class="st0" width="5.8" height="2.3"/>
		<rect x="2.6" y="15.3" class="st0" width="12.7" height="2.7"/>
	</g>
</g>
</svg>
