<?xml version="1.0" standalone="no"?><!DOCTYPE svg PUBLIC "-//W3C//DTD SVG 1.1//EN" "http://www.w3.org/Graphics/SVG/1.1/DTD/svg11.dtd"><svg t="1620367853364" class="icon" viewBox="0 0 1024 1024" version="1.1" xmlns="http://www.w3.org/2000/svg" p-id="2222" xmlns:xlink="http://www.w3.org/1999/xlink" width="200" height="200"><defs><style type="text/css"></style></defs><path d="M904.9 361.82l-1.66-5.25-83.85-230.35a16.29 16.29 0 0 0-15.3-10.72H220.26A16.29 16.29 0 0 0 205 126.22l-85.63 235.6a171.28 171.28 0 0 0-6.75 47.47c0 60.78 32.07 116.34 83.9 144.68 21.26 11.56 46.24 17.53 74.58 17.53 47.36 0 91-21.63 120.82-58.54a155.91 155.91 0 0 0 120.44 58.17c47-0.37 90.24-22 119.7-58.17a155.07 155.07 0 0 0 121.19 58.17c28.71 0 54.44-6.34 75.7-18.64 51.09-28.71 82.41-83.9 82.41-144.31a150.74 150.74 0 0 0-6.46-46.36z m-50.55 45.71v0.65c0 39.87-20.44 76.13-53.34 94.62l-0.32 0.18-0.32 0.18c-12.58 7.28-28.43 11-47.14 11a99.17 99.17 0 0 1-42.56-9.66 97.92 97.92 0 0 1-34.08-27.07l-31.5-39.47a16.29 16.29 0 0 0-25.36-0.13L587.86 477c-19 23.27-46.45 36.8-75.5 37.16a98.92 98.92 0 0 1-76.06-36.94l-31.66-39.27a16.29 16.29 0 0 0-25.35 0l-31.71 39.23a101.19 101.19 0 0 1-34.48 27.71 95.05 95.05 0 0 1-42 9.66c-18.45 0-34.35-3.55-47.26-10.56-33.44-18.3-54.21-54.56-54.21-94.65a114.92 114.92 0 0 1 5.26-34.15l0.08-0.25h0.13l73.67-202.44h526.81l73.74 202.6 0.37 1.13a94.8 94.8 0 0 1 4.67 30.66z" p-id="2223"></path><path d="M638.82 856.44m16 0l192 0q16 0 16 16l0 24q0 16-16 16l-192 0q-16 0-16-16l0-24q0-16 16-16Z" p-id="2224"></path><path d="M638.82 752.44m16 0l192 0q16 0 16 16l0 24q0 16-16 16l-192 0q-16 0-16-16l0-24q0-16 16-16Z" p-id="2225"></path><path d="M638.82 640.44m16 0l192 0q16 0 16 16l0 24q0 16-16 16l-192 0q-16 0-16-16l0-24q0-16 16-16Z" p-id="2226"></path><path d="M574.82 856.44h-352v-224a8 8 0 0 0-8-8h-40a8 8 0 0 0-8 8v248a32 32 0 0 0 32 32h376a8 8 0 0 0 8-8v-40a8 8 0 0 0-8-8z" p-id="2227"></path></svg>