<?xml version="1.0" standalone="no"?><!DOCTYPE svg PUBLIC "-//W3C//DTD SVG 1.1//EN" "http://www.w3.org/Graphics/SVG/1.1/DTD/svg11.dtd"><svg t="1620368031017" class="icon" viewBox="0 0 1025 1024" version="1.1" xmlns="http://www.w3.org/2000/svg" p-id="3804" xmlns:xlink="http://www.w3.org/1999/xlink" width="200.1953125" height="200"><defs><style type="text/css"></style></defs><path d="M574.1 148.9c-42.6-25.5-94.4-26.6-138.4-3L165.1 293.3l-49.2 2.7c-29.5 0.2-57.3 11.8-78.3 32.7C16.9 349.4 5 377.5 5 405.8v224.3c0 61.5 49 109.7 111.5 109.7h65.6l253.5 138.1 0.1 0.1c21.1 11.3 44 17 66.8 17 24.8 0 49.4-6.7 71.6-19.9 40-23.9 63.9-65.2 63.9-110.4V259.2c0-45.2-23.9-86.4-63.9-110.3zM598 764.6c0 31-16.6 59.4-44.4 76-30.4 18.2-67.4 19-98.9 2.1l-262.4-143h-75.8C76.4 699.7 45 669.1 45 630V405.8C45 368 77.7 336 116.5 336l59.8-3.3L454.7 181c31.5-16.9 68.4-16.1 98.9 2.1 27.8 16.6 44.4 45 44.4 76v505.5zM1024.7 502c-2.3-60.6-16.6-118.9-42.6-173.1-25-52.5-59.7-98.9-103.1-137.9-8.2-7.4-20.9-6.7-28.2 1.5-7.4 8.2-6.7 20.9 1.5 28.2 81.3 73.1 128.4 173.5 132.5 282.7 4.5 118.2-43.1 231.8-130.7 311.6-1.2 1.1-2.4 2.2-3.6 3.2-8.3 7.3-9 20-1.7 28.2 4 4.4 9.4 6.7 15 6.7 4.7 0 9.5-1.7 13.3-5.1 1.3-1.2 2.6-2.4 4-3.6 96.2-87.5 148.6-212.4 143.6-342.4z" p-id="3805"></path><path d="M850.5 510.7c-3-79.3-40.5-153-103-202.1-1.4-1.1-2.9-2.2-4.3-3.3-8.8-6.7-21.4-4.9-28 3.9-6.7 8.8-4.9 21.4 3.9 28 1.2 0.9 2.5 1.9 3.7 2.9C776 382 808 444.7 810.5 512.3c2.8 72.6-27.9 140.7-84.2 186.9-8.5 7-9.8 19.6-2.8 28.1 4 4.8 9.7 7.3 15.5 7.3 4.5 0 9-1.5 12.7-4.5 31.6-25.9 57.2-59.1 74.3-96.1 17.9-38.9 26.1-80.4 24.5-123.3z" p-id="3806"></path></svg>