<?xml version="1.0" standalone="no"?><!DOCTYPE svg PUBLIC "-//W3C//DTD SVG 1.1//EN" "http://www.w3.org/Graphics/SVG/1.1/DTD/svg11.dtd"><svg t="1589436520487" class="icon" viewBox="0 0 1024 1024" version="1.1" xmlns="http://www.w3.org/2000/svg" p-id="2371" xmlns:xlink="http://www.w3.org/1999/xlink" width="200" height="200"><defs><style type="text/css"></style></defs><path d="M624 96c35.3456 0 64 28.6544 64 64v48h216c13.2544 0 24 10.7456 24 24 0 13.2544-10.7456 24-24 24h-72v544c0 70.6928-57.3072 128-128 128H320c-70.6928 0-128-57.3072-128-128V256H120c-13.2544 0-24-10.7456-24-24 0-13.2544 10.7456-24 24-24h216v-48c0-35.3456 28.6544-64 64-64h224z m160 160H240v544c0 44.1824 35.8176 80 80 80h384c44.1824 0 80-35.8176 80-80V256z m-272 128c13.2544 0 24 10.7456 24 24v273.6c0 13.2544-10.7456 24-24 24-13.2544 0-24-10.7456-24-24V408c0-13.2544 10.7456-24 24-24z m-152 32c13.2544 0 24 10.7456 24 24v208c0 13.2544-10.7456 24-24 24-13.2544 0-24-10.7456-24-24V440c0-13.2544 10.7456-24 24-24z m304 0c13.2544 0 24 10.7456 24 24v208c0 13.2544-10.7456 24-24 24-13.2544 0-24-10.7456-24-24V440c0-13.2544 10.7456-24 24-24zM624 144H400c-8.8368 0-16 7.1632-16 16v48h256v-48c0-8.8368-7.1632-16-16-16z" fill="#979797" p-id="2372"></path></svg>