<?xml version="1.0" standalone="no"?><!DOCTYPE svg PUBLIC "-//W3C//DTD SVG 1.1//EN" "http://www.w3.org/Graphics/SVG/1.1/DTD/svg11.dtd"><svg t="1620293541403" class="icon" viewBox="0 0 1024 1024" version="1.1" xmlns="http://www.w3.org/2000/svg" p-id="1718" xmlns:xlink="http://www.w3.org/1999/xlink" width="200" height="200"><defs><style type="text/css"></style></defs><path d="M694.6816 735.8464H245.76c-55.5008 0-100.5568-45.056-100.5568-100.5568s45.056-100.5568 100.5568-100.5568H415.5392c80.4864 0 145.6128-65.1264 145.6128-145.6128s-65.1264-145.6128-145.6128-145.6128h-87.2448c-12.4928 0-22.528 10.0352-22.528 22.528s10.0352 22.528 22.528 22.528H415.744c55.5008 0 100.5568 45.056 100.5568 100.5568s-45.056 100.5568-100.5568 100.5568h-169.984c-80.4864 0-145.6128 65.1264-145.6128 145.6128s65.1264 145.6128 145.6128 145.6128h448.9216c12.4928 0 22.528-10.0352 22.528-22.528s-10.24-22.528-22.528-22.528z" fill="#260A50" p-id="1719"></path><path d="M183.9104 265.6256m-81.92 0a81.92 81.92 0 1 0 163.84 0 81.92 81.92 0 1 0-163.84 0Z" fill="#F04FC0" p-id="1720"></path><path d="M842.1376 758.3744m-81.92 0a81.92 81.92 0 1 0 163.84 0 81.92 81.92 0 1 0-163.84 0Z" fill="#260A50" p-id="1721"></path></svg>